<svg id="date.svg" xmlns="http://www.w3.org/2000/svg" width="77" height="72"><path id="Shape_8_copy" data-name="Shape 8 copy" d="M1456.57 5869h-59.14a6.432 6.432 0 0 1-6.43-6.43v-7.71a1.293 1.293 0 0 1 1.29-1.29h6.42v-39.86a6.423 6.423 0 0 1 6.43-6.42h3.86v-5.15a5.138 5.138 0 0 1 5.14-5.14 1.285 1.285 0 1 1 0 2.57 2.569 2.569 0 0 0-2.57 2.57v10.29a2.57 2.57 0 1 0 5.14 0v-10.29a1.29 1.29 0 0 1 2.58 0v5.15h6.42v-5.15a5.147 5.147 0 0 1 5.15-5.14 1.285 1.285 0 0 1 0 2.57 2.569 2.569 0 0 0-2.57 2.57v10.29a2.57 2.57 0 0 0 5.14 0v-10.29a1.285 1.285 0 0 1 2.57 0v5.15h6.43v-5.15a5.138 5.138 0 0 1 5.14-5.14 1.285 1.285 0 1 1 0 2.57 2.569 2.569 0 0 0-2.57 2.57v10.29a2.57 2.57 0 0 0 5.14 0v-10.29a1.285 1.285 0 0 1 2.57 0v5.15h3.86a6.423 6.423 0 0 1 6.43 6.42v48.86a6.432 6.432 0 0 1-6.43 6.43zm-63-12.86v6.43a3.862 3.862 0 0 0 3.86 3.86h54a6.4 6.4 0 0 1-1.29-3.86v-6.43h-56.57zm41.14-2.57V5851H1427v2.57h7.71zm-18 0V5851H1409v2.57h7.71zm43.72-28.28h-16.72a1.29 1.29 0 0 1 0-2.58h16.72v-9a3.854 3.854 0 0 0-3.86-3.85h-3.86v2.57a5.14 5.14 0 0 1-10.28 0v-2.57H1436v2.57a5.145 5.145 0 0 1-10.29 0v-2.57h-6.42v2.57a5.145 5.145 0 0 1-10.29 0v-2.57h-3.86a3.845 3.845 0 0 0-3.85 3.85v9h33.42a1.29 1.29 0 0 1 0 2.58h-33.42v28.28h5.14V5851a2.569 2.569 0 0 1 2.57-2.57h7.71a2.578 2.578 0 0 1 2.58 2.57v2.57h5.14V5851a2.569 2.569 0 0 1 2.57-2.57h7.71a2.578 2.578 0 0 1 2.58 2.57v2.57h14.14a1.285 1.285 0 0 1 1.28 1.29v7.71a3.86 3.86 0 0 0 7.72 0v-37.28zm-7.72 15.42a1.29 1.29 0 0 1 0 2.58H1445a2.578 2.578 0 0 1-2.57-2.58V5833a2.569 2.569 0 0 1 2.57-2.57h7.71a1.285 1.285 0 1 1 0 2.57H1445v7.71h7.71zm-18 2.58H1427a2.578 2.578 0 0 1-2.57-2.58V5833a2.569 2.569 0 0 1 2.57-2.57h7.71a2.578 2.578 0 0 1 2.58 2.57v7.71a2.586 2.586 0 0 1-2.58 2.58zm0-10.29H1427v7.71h7.71V5833zm-18 10.29H1409a2.578 2.578 0 0 1-2.57-2.58V5833a2.569 2.569 0 0 1 2.57-2.57h7.71a2.578 2.578 0 0 1 2.58 2.57v7.71a2.586 2.586 0 0 1-2.58 2.58zm0-10.29H1409v7.71h7.71V5833z" transform="translate(-1386 -5797)" fill-rule="evenodd" fill="#f5113c"/><path id="Shape_8_copy_2" data-name="Shape 8 copy 2" d="M1453.57 5869h-59.14a6.432 6.432 0 0 1-6.43-6.43v-7.71a1.293 1.293 0 0 1 1.29-1.29h6.42v-39.86a6.423 6.423 0 0 1 6.43-6.42h3.86v-5.15a5.138 5.138 0 0 1 5.14-5.14 1.285 1.285 0 1 1 0 2.57 2.569 2.569 0 0 0-2.57 2.57v10.29a2.57 2.57 0 1 0 5.14 0v-10.29a1.29 1.29 0 0 1 2.58 0v5.15h6.42v-5.15a5.147 5.147 0 0 1 5.15-5.14 1.285 1.285 0 0 1 0 2.57 2.569 2.569 0 0 0-2.57 2.57v10.29a2.57 2.57 0 0 0 5.14 0v-10.29a1.285 1.285 0 0 1 2.57 0v5.15h6.43v-5.15a5.138 5.138 0 0 1 5.14-5.14 1.285 1.285 0 1 1 0 2.57 2.569 2.569 0 0 0-2.57 2.57v10.29a2.57 2.57 0 0 0 5.14 0v-10.29a1.285 1.285 0 0 1 2.57 0v5.15h3.86a6.423 6.423 0 0 1 6.43 6.42v48.86a6.432 6.432 0 0 1-6.43 6.43zm-63-12.86v6.43a3.862 3.862 0 0 0 3.86 3.86h54a6.4 6.4 0 0 1-1.29-3.86v-6.43h-56.57zm41.14-2.57V5851H1424v2.57h7.71zm-18 0V5851H1406v2.57h7.71zm43.72-28.28h-16.72a1.29 1.29 0 0 1 0-2.58h16.72v-9a3.854 3.854 0 0 0-3.86-3.85h-3.86v2.57a5.14 5.14 0 0 1-10.28 0v-2.57H1433v2.57a5.145 5.145 0 0 1-10.29 0v-2.57h-6.42v2.57a5.145 5.145 0 0 1-10.29 0v-2.57h-3.86a3.845 3.845 0 0 0-3.85 3.85v9h33.42a1.29 1.29 0 0 1 0 2.58h-33.42v28.28h5.14V5851a2.569 2.569 0 0 1 2.57-2.57h7.71a2.578 2.578 0 0 1 2.58 2.57v2.57h5.14V5851a2.569 2.569 0 0 1 2.57-2.57h7.71a2.578 2.578 0 0 1 2.58 2.57v2.57h14.14a1.285 1.285 0 0 1 1.28 1.29v7.71a3.86 3.86 0 0 0 7.72 0v-37.28zm-7.72 15.42a1.29 1.29 0 0 1 0 2.58H1442a2.578 2.578 0 0 1-2.57-2.58V5833a2.569 2.569 0 0 1 2.57-2.57h7.71a1.285 1.285 0 1 1 0 2.57H1442v7.71h7.71zm-18 2.58H1424a2.578 2.578 0 0 1-2.57-2.58V5833a2.569 2.569 0 0 1 2.57-2.57h7.71a2.578 2.578 0 0 1 2.58 2.57v7.71a2.586 2.586 0 0 1-2.58 2.58zm0-10.29H1424v7.71h7.71V5833zm-18 10.29H1406a2.578 2.578 0 0 1-2.57-2.58V5833a2.569 2.569 0 0 1 2.57-2.57h7.71a2.578 2.578 0 0 1 2.58 2.57v7.71a2.586 2.586 0 0 1-2.58 2.58zm0-10.29H1406v7.71h7.71V5833z" transform="translate(-1386 -5797)" fill="#a73248" fill-rule="evenodd"/><path d="M1451.57 5869h-59.14a6.432 6.432 0 0 1-6.43-6.43v-7.71a1.293 1.293 0 0 1 1.29-1.29h6.42v-39.86a6.423 6.423 0 0 1 6.43-6.42h3.86v-5.15a5.138 5.138 0 0 1 5.14-5.14 1.285 1.285 0 1 1 0 2.57 2.569 2.569 0 0 0-2.57 2.57v10.29a2.57 2.57 0 1 0 5.14 0v-10.29a1.29 1.29 0 0 1 2.58 0v5.15h6.42v-5.15a5.147 5.147 0 0 1 5.15-5.14 1.285 1.285 0 0 1 0 2.57 2.569 2.569 0 0 0-2.57 2.57v10.29a2.57 2.57 0 0 0 5.14 0v-10.29a1.285 1.285 0 0 1 2.57 0v5.15h6.43v-5.15a5.138 5.138 0 0 1 5.14-5.14 1.285 1.285 0 1 1 0 2.57 2.569 2.569 0 0 0-2.57 2.57v10.29a2.57 2.57 0 0 0 5.14 0v-10.29a1.285 1.285 0 0 1 2.57 0v5.15h3.86a6.423 6.423 0 0 1 6.43 6.42v48.86a6.432 6.432 0 0 1-6.43 6.43zm-63-12.86v6.43a3.862 3.862 0 0 0 3.86 3.86h54a6.4 6.4 0 0 1-1.29-3.86v-6.43h-56.57zm41.14-2.57V5851H1422v2.57h7.71zm-18 0V5851H1404v2.57h7.71zm43.72-28.28h-16.72a1.29 1.29 0 0 1 0-2.58h16.72v-9a3.854 3.854 0 0 0-3.86-3.85h-3.86v2.57a5.14 5.14 0 0 1-10.28 0v-2.57H1431v2.57a5.145 5.145 0 0 1-10.29 0v-2.57h-6.42v2.57a5.145 5.145 0 0 1-10.29 0v-2.57h-3.86a3.845 3.845 0 0 0-3.85 3.85v9h33.42a1.29 1.29 0 0 1 0 2.58h-33.42v28.28h5.14V5851a2.569 2.569 0 0 1 2.57-2.57h7.71a2.578 2.578 0 0 1 2.58 2.57v2.57h5.14V5851a2.569 2.569 0 0 1 2.57-2.57h7.71a2.578 2.578 0 0 1 2.58 2.57v2.57h14.14a1.285 1.285 0 0 1 1.28 1.29v7.71a3.86 3.86 0 0 0 7.72 0v-37.28zm-7.72 15.42a1.29 1.29 0 0 1 0 2.58H1440a2.578 2.578 0 0 1-2.57-2.58V5833a2.569 2.569 0 0 1 2.57-2.57h7.71a1.285 1.285 0 1 1 0 2.57H1440v7.71h7.71zm-18 2.58H1422a2.578 2.578 0 0 1-2.57-2.58V5833a2.569 2.569 0 0 1 2.57-2.57h7.71a2.578 2.578 0 0 1 2.58 2.57v7.71a2.586 2.586 0 0 1-2.58 2.58zm0-10.29H1422v7.71h7.71V5833zm-18 10.29H1404a2.578 2.578 0 0 1-2.57-2.58V5833a2.569 2.569 0 0 1 2.57-2.57h7.71a2.578 2.578 0 0 1 2.58 2.57v7.71a2.586 2.586 0 0 1-2.58 2.58zm0-10.29H1404v7.71h7.71V5833z" transform="translate(-1386 -5797)" fill="#fff" fill-rule="evenodd"/></svg>