<svg id="fb.svg" xmlns="http://www.w3.org/2000/svg" width="31.84" height="30.88"><path id="Shape_1_copy_6" data-name="Shape 1 copy 6" d="M1519.29 8026.06h-21.58a.485.485 0 0 0 0 .97h21.58a1.583 1.583 0 0 1 1.58 1.58v25.78a1.583 1.583 0 0 1-1.58 1.58h-8.76v-6.22a.485.485 0 0 0-.97 0v6.22h-3.15v-11.38a.48.48 0 0 0-.48-.48h-2.09v-3.16h2.09a.474.474 0 0 0 .48-.48v-3.1a5.7 5.7 0 0 1 5.69-5.7h3.63v3.16h-3.63a2.544 2.544 0 0 0-2.54 2.54v3.1a.48.48 0 0 0 .48.48h5.69v3.16h-5.69a.487.487 0 0 0-.48.48v3.1a.485.485 0 0 0 .97 0v-2.61h5.68a.482.482 0 0 0 .48-.49v-4.12a.474.474 0 0 0-.48-.48h-5.68v-2.62a1.566 1.566 0 0 1 1.57-1.57h4.11a.482.482 0 0 0 .48-.49v-4.12a.482.482 0 0 0-.48-.49h-4.11a6.671 6.671 0 0 0-6.65 6.67v2.62h-2.09a.48.48 0 0 0-.48.48v4.12a.489.489 0 0 0 .48.49h2.09v10.89h-11.85a1.583 1.583 0 0 1-1.58-1.58v-25.78a1.583 1.583 0 0 1 1.58-1.58h2.05a.485.485 0 1 0 0-.97h-2.05a2.552 2.552 0 0 0-2.54 2.55v25.78a2.552 2.552 0 0 0 2.54 2.55h25.69a2.552 2.552 0 0 0 2.54-2.55v-25.78a2.552 2.552 0 0 0-2.54-2.55z" transform="translate(-1490 -8026.06)" fill-rule="evenodd" fill="#3068a6"/><path d="M1518.23 8026.06h-21.58a.485.485 0 0 0 0 .97h21.58a1.583 1.583 0 0 1 1.58 1.58v25.78a1.583 1.583 0 0 1-1.58 1.58h-8.77v-6.22a.474.474 0 0 0-.48-.48.48.48 0 0 0-.48.48v6.22h-3.15v-11.38a.48.48 0 0 0-.48-.48h-2.09v-3.16h2.09a.474.474 0 0 0 .48-.48v-3.1a5.7 5.7 0 0 1 5.69-5.7h3.63v3.16h-3.63a2.544 2.544 0 0 0-2.54 2.54v3.1a.48.48 0 0 0 .48.48h5.69v3.16h-5.69a.487.487 0 0 0-.48.48v3.1a.487.487 0 0 0 .48.48.48.48 0 0 0 .48-.48v-2.61h5.69a.482.482 0 0 0 .48-.49v-4.12a.474.474 0 0 0-.48-.48h-5.69v-2.62a1.575 1.575 0 0 1 1.58-1.57h4.11a.482.482 0 0 0 .48-.49v-4.12a.482.482 0 0 0-.48-.49h-4.11a6.671 6.671 0 0 0-6.65 6.67v2.62h-2.09a.48.48 0 0 0-.48.48v4.12a.489.489 0 0 0 .48.49h2.09v10.89h-11.85a1.583 1.583 0 0 1-1.58-1.58v-25.78a1.583 1.583 0 0 1 1.58-1.58h2.05a.485.485 0 0 0 0-.97h-2.05a2.552 2.552 0 0 0-2.54 2.55v25.78a2.552 2.552 0 0 0 2.54 2.55h25.69a2.552 2.552 0 0 0 2.54-2.55v-25.78a2.552 2.552 0 0 0-2.54-2.55z" transform="translate(-1490 -8026.06)" fill="#ff4240" fill-rule="evenodd"/></svg>