<svg id="group.svg" xmlns="http://www.w3.org/2000/svg" width="87.469" height="76.56"><path id="Shape_4_copy_2" data-name="Shape 4 copy 2" d="M576.68 5847.53l-8.908-3.24a1.523 1.523 0 0 0-.417-1.17l-2.846-2.99v-5.02c.3-.25.6-.5.885-.77a17.946 17.946 0 0 0 5.65-13.04v-4.01a17.651 17.651 0 0 0 1.634-7.43v-16.33a1.526 1.526 0 0 0-1.528-1.53h-22.874a14.616 14.616 0 0 0-14.6 14.6v3.26a17.651 17.651 0 0 0 1.634 7.43v3.45a18.67 18.67 0 0 0 6.535 14.25v5.14l-2.845 2.99a1.523 1.523 0 0 0-.417 1.17l-9.4 3.42a7.938 7.938 0 0 0-1.889.99l-1.477-.74c4.395-1.91 5.787-4.6 5.854-4.74a1.514 1.514 0 0 0 0-1.36c-1.1-2.21-1.235-6.24-1.342-9.49-.036-1.08-.07-2.1-.134-3.01-.521-7.33-6.093-12.85-12.961-12.85s-12.441 5.52-12.962 12.85c-.064.91-.1 1.93-.134 3.01-.107 3.25-.24 7.28-1.342 9.49a1.514 1.514 0 0 0 0 1.36c.067.14 1.456 2.82 5.86 4.74l-4.1 2.05a6.388 6.388 0 0 0-3.554 5.75v11.29a1.528 1.528 0 0 0 3.056 0v-11.29a3.361 3.361 0 0 1 1.865-3.02l5.106-2.55 1.776 1.69a6.428 6.428 0 0 0 8.859 0l1.776-1.69 1.665.83a8.05 8.05 0 0 0-1.229 4.27v11.76a1.528 1.528 0 0 0 3.056 0v-11.76a5.028 5.028 0 0 1 3.3-4.71l9.913-3.6 4.126 6.19a3.17 3.17 0 0 0 2.319 1.39c.106.01.211.01.315.01a3.135 3.135 0 0 0 2.233-.92l2.517-2.52v15.92a1.528 1.528 0 0 0 3.056 0v-15.92l2.518 2.52a3.131 3.131 0 0 0 2.232.92c.1 0 .21 0 .315-.01a3.172 3.172 0 0 0 2.32-1.39l4.126-6.19 9.913 3.6a5.029 5.029 0 0 1 3.3 4.71v11.76a1.528 1.528 0 0 0 3.056 0v-11.76a8.059 8.059 0 0 0-2.26-5.59m-56.559-4.17v-1.82a11.37 11.37 0 0 0 4.035-4.98 16.879 16.879 0 0 0 .87 3.65 11.074 11.074 0 0 1-4.915 3.15zm-16.342-15.95a11.351 11.351 0 0 1 3.089-7.13 9.5 9.5 0 0 1 13.648 0 11.351 11.351 0 0 1 3.089 7.13c.06.85.093 1.84.128 2.89l.009.27a13.75 13.75 0 0 0-7.548-5.51 19.441 19.441 0 0 0-5.812-.92 1.52 1.52 0 0 0-1.058.47l-2.757 2.85a1.531 1.531 0 1 0 2.2 2.13l2.294-2.38c1.975.09 8.332.83 10.8 6.28a8.274 8.274 0 0 1-16.448-1.29 1.532 1.532 0 0 0-1.528-1.53 1.057 1.057 0 0 0-.251.03l.014-.4c.028-1.05.061-2.04.121-2.89zm-1.421 12.8a16.83 16.83 0 0 0 .871-3.66 11.38 11.38 0 0 0 4.033 4.97v1.84a10.987 10.987 0 0 1-4.913-3.15zm9.01 7.28l-1.421-1.35a3.163 3.163 0 0 0 .371-1.49v-1.63a11.412 11.412 0 0 0 6.747 0v1.63a3.164 3.164 0 0 0 .372 1.49l-1.421 1.35a3.369 3.369 0 0 1-4.658 0zm23.458-28.92v-3.79a1.487 1.487 0 0 0-.152-.66 14.693 14.693 0 0 1-1.482-6.43v-3.26a11.55 11.55 0 0 1 11.543-11.54h21.346v14.8a14.693 14.693 0 0 1-1.482 6.43 1.487 1.487 0 0 0-.152.66v4.35a14.668 14.668 0 0 1-4.684 10.81q-.565.525-1.173.99c-.009.01-.018.01-.027.02a14.707 14.707 0 0 1-9.915 2.96c-7.761-.5-13.832-7.24-13.832-15.34zm13.624 18.39c.4.02.8.04 1.2.04a17.658 17.658 0 0 0 8.26-2.03v2.79l-8.275 5.66-8.275-5.66v-2.85a17.243 17.243 0 0 0 7.08 2.05zm-5.02 12.36a.116.116 0 0 1-.085.03.121.121 0 0 1-.078-.05l-4.752-7.13 1.529-1.6 7.21 4.92zm12.576-.02a.121.121 0 0 1-.078.05.116.116 0 0 1-.085-.03l-3.823-3.83 7.209-4.92 1.529 1.6zm-50.483 6.27a1.524 1.524 0 0 0-1.529 1.52v7.79a1.529 1.529 0 0 0 3.057 0v-7.79a1.524 1.524 0 0 0-1.538-1.52zm34.2-48.13a.1.1 0 0 1 .079-.1 47.982 47.982 0 0 1 9.928-.49c4.765.32 8.216 1.52 10.258 3.56a1.528 1.528 0 0 0 2.161-2.16c-5.779-5.78-17.871-4.68-22.8-3.93a3.134 3.134 0 0 0-2.681 3.12v3.52a1.529 1.529 0 1 0 3.057 0v-3.52zm-8.064 49.37a1.532 1.532 0 0 0-1.528 1.53v6.54a1.528 1.528 0 0 0 3.056 0v-6.54a1.532 1.532 0 0 0-1.533-1.53zm35.945 0a1.532 1.532 0 0 0-1.528 1.53v6.54a1.528 1.528 0 0 0 3.056 0v-6.54a1.532 1.532 0 0 0-1.533-1.53z" transform="translate(-495 -5792)" fill-rule="evenodd" fill="#f5113c"/><path id="Shape_4_copy" data-name="Shape 4 copy" d="M574.679 5847.53l-8.907-3.24a1.523 1.523 0 0 0-.417-1.17l-2.846-2.99v-5.02c.3-.25.6-.5.885-.77a17.946 17.946 0 0 0 5.65-13.04v-4.01a17.636 17.636 0 0 0 1.634-7.43v-16.33a1.526 1.526 0 0 0-1.528-1.53h-22.874a14.616 14.616 0 0 0-14.6 14.6v3.26a17.651 17.651 0 0 0 1.634 7.43v3.45a18.67 18.67 0 0 0 6.535 14.25v5.14l-2.845 2.99a1.523 1.523 0 0 0-.417 1.17l-9.4 3.42a7.938 7.938 0 0 0-1.889.99l-1.477-.74c4.395-1.91 5.787-4.6 5.854-4.74a1.514 1.514 0 0 0 0-1.36c-1.1-2.21-1.235-6.24-1.342-9.49-.036-1.08-.07-2.1-.134-3.01-.521-7.33-6.093-12.85-12.961-12.85s-12.441 5.52-12.962 12.85c-.064.91-.1 1.93-.134 3.01-.107 3.25-.24 7.28-1.342 9.49a1.514 1.514 0 0 0 0 1.36c.067.14 1.456 2.82 5.86 4.74l-4.1 2.05a6.388 6.388 0 0 0-3.554 5.75v11.29a1.528 1.528 0 0 0 3.056 0v-11.29a3.361 3.361 0 0 1 1.865-3.02l5.106-2.55 1.776 1.69a6.428 6.428 0 0 0 8.859 0l1.776-1.69 1.665.83a8.05 8.05 0 0 0-1.229 4.27v11.76a1.528 1.528 0 0 0 3.056 0v-11.76a5.029 5.029 0 0 1 3.3-4.71l9.913-3.6 4.126 6.19a3.17 3.17 0 0 0 2.319 1.39c.106.01.211.01.315.01a3.135 3.135 0 0 0 2.233-.92l2.517-2.52v15.92a1.528 1.528 0 0 0 3.056 0v-15.92l2.518 2.52a3.131 3.131 0 0 0 2.232.92c.1 0 .21 0 .315-.01a3.172 3.172 0 0 0 2.32-1.39l4.126-6.19 9.913 3.6a5.029 5.029 0 0 1 3.3 4.71v11.76a1.528 1.528 0 0 0 3.056 0v-11.76a8.059 8.059 0 0 0-2.26-5.59m-56.559-4.17v-1.82a11.37 11.37 0 0 0 4.035-4.98 16.879 16.879 0 0 0 .87 3.65 11.074 11.074 0 0 1-4.915 3.15zm-16.342-15.95a11.351 11.351 0 0 1 3.089-7.13 9.5 9.5 0 0 1 13.648 0 11.351 11.351 0 0 1 3.089 7.13c.06.85.093 1.84.128 2.89l.009.27a13.75 13.75 0 0 0-7.548-5.51 19.441 19.441 0 0 0-5.812-.92 1.516 1.516 0 0 0-1.057.47l-2.757 2.85a1.531 1.531 0 1 0 2.2 2.13l2.294-2.38c1.975.09 8.331.83 10.8 6.28a8.275 8.275 0 0 1-16.449-1.29 1.532 1.532 0 0 0-1.528-1.53 1.043 1.043 0 0 0-.25.03c0-.14.008-.27.013-.4.028-1.05.061-2.04.121-2.89zm-1.421 12.8a16.83 16.83 0 0 0 .871-3.66 11.38 11.38 0 0 0 4.033 4.97v1.84a10.987 10.987 0 0 1-4.913-3.15zm9.01 7.28l-1.421-1.35a3.163 3.163 0 0 0 .371-1.49v-1.63a11.412 11.412 0 0 0 6.747 0v1.63a3.164 3.164 0 0 0 .372 1.49l-1.421 1.35a3.369 3.369 0 0 1-4.658 0zm23.458-28.92v-3.79a1.487 1.487 0 0 0-.152-.66 14.693 14.693 0 0 1-1.482-6.43v-3.26a11.55 11.55 0 0 1 11.543-11.54h21.346v14.8a14.693 14.693 0 0 1-1.482 6.43 1.487 1.487 0 0 0-.152.66v4.35a14.668 14.668 0 0 1-4.684 10.81q-.565.525-1.173.99c-.009.01-.018.01-.027.02a14.708 14.708 0 0 1-9.915 2.96c-7.761-.5-13.832-7.24-13.832-15.34zm13.624 18.39c.4.02.8.04 1.2.04a17.658 17.658 0 0 0 8.26-2.03v2.79l-8.275 5.66-8.275-5.66v-2.85a17.243 17.243 0 0 0 7.08 2.05zm-5.02 12.36a.116.116 0 0 1-.085.03.121.121 0 0 1-.078-.05l-4.752-7.13 1.529-1.6 7.21 4.92zm12.576-.02a.121.121 0 0 1-.078.05.116.116 0 0 1-.085-.03l-3.823-3.83 7.209-4.92 1.529 1.6zm-50.484 6.27a1.524 1.524 0 0 0-1.528 1.52v7.79a1.529 1.529 0 0 0 3.057 0v-7.79a1.524 1.524 0 0 0-1.539-1.52zm34.205-48.13a.1.1 0 0 1 .08-.1 47.982 47.982 0 0 1 9.928-.49c4.765.32 8.216 1.52 10.258 3.56a1.528 1.528 0 0 0 2.161-2.16c-5.78-5.78-17.871-4.68-22.8-3.93a3.134 3.134 0 0 0-2.681 3.12v3.52a1.528 1.528 0 1 0 3.056 0v-3.52zm-8.063 49.37a1.532 1.532 0 0 0-1.528 1.53v6.54a1.528 1.528 0 0 0 3.056 0v-6.54a1.532 1.532 0 0 0-1.538-1.53zm35.945 0a1.532 1.532 0 0 0-1.528 1.53v6.54a1.528 1.528 0 0 0 3.056 0v-6.54a1.532 1.532 0 0 0-1.538-1.53z" transform="translate(-495 -5792)" fill="#a73248" fill-rule="evenodd"/><path d="M570.68 5847.53l-8.908-3.24a1.523 1.523 0 0 0-.417-1.17l-2.846-2.99v-5.02c.3-.25.6-.5.885-.77a17.946 17.946 0 0 0 5.65-13.04v-4.01a17.651 17.651 0 0 0 1.634-7.43v-16.33a1.526 1.526 0 0 0-1.528-1.53h-22.874a14.616 14.616 0 0 0-14.6 14.6v3.26a17.651 17.651 0 0 0 1.634 7.43v3.45a18.67 18.67 0 0 0 6.535 14.25v5.14l-2.845 2.99a1.523 1.523 0 0 0-.417 1.17l-9.4 3.42a7.938 7.938 0 0 0-1.889.99l-1.477-.74c4.395-1.91 5.787-4.6 5.854-4.74a1.514 1.514 0 0 0 0-1.36c-1.1-2.21-1.235-6.24-1.342-9.49-.036-1.08-.07-2.1-.134-3.01-.521-7.33-6.093-12.85-12.961-12.85s-12.441 5.52-12.962 12.85c-.064.91-.1 1.93-.134 3.01-.107 3.25-.24 7.28-1.342 9.49a1.514 1.514 0 0 0 0 1.36c.067.14 1.456 2.82 5.86 4.74l-4.1 2.05a6.388 6.388 0 0 0-3.554 5.75v11.29a1.528 1.528 0 0 0 3.056 0v-11.29a3.361 3.361 0 0 1 1.865-3.02l5.106-2.55 1.776 1.69a6.428 6.428 0 0 0 8.859 0l1.776-1.69 1.665.83a8.05 8.05 0 0 0-1.229 4.27v11.76a1.528 1.528 0 0 0 3.056 0v-11.76a5.028 5.028 0 0 1 3.3-4.71l9.913-3.6 4.126 6.19a3.172 3.172 0 0 0 2.319 1.39c.106.01.211.01.315.01a3.135 3.135 0 0 0 2.233-.92l2.517-2.52v15.92a1.528 1.528 0 0 0 3.056 0v-15.92l2.518 2.52a3.131 3.131 0 0 0 2.232.92c.1 0 .21 0 .315-.01a3.172 3.172 0 0 0 2.32-1.39l4.126-6.19 9.913 3.6a5.029 5.029 0 0 1 3.3 4.71v11.76a1.528 1.528 0 0 0 3.056 0v-11.76a8.059 8.059 0 0 0-2.26-5.59m-56.559-4.17v-1.82a11.37 11.37 0 0 0 4.035-4.98 16.879 16.879 0 0 0 .87 3.65 11.074 11.074 0 0 1-4.915 3.15zm-16.342-15.95a11.351 11.351 0 0 1 3.089-7.13 9.5 9.5 0 0 1 13.648 0 11.351 11.351 0 0 1 3.089 7.13c.06.85.093 1.84.128 2.89l.009.27a13.75 13.75 0 0 0-7.548-5.51 19.441 19.441 0 0 0-5.812-.92 1.516 1.516 0 0 0-1.057.47l-2.758 2.85a1.531 1.531 0 1 0 2.2 2.13l2.3-2.38c1.975.09 8.332.83 10.8 6.28a8.275 8.275 0 0 1-16.449-1.29 1.532 1.532 0 0 0-1.528-1.53 1.057 1.057 0 0 0-.251.03l.014-.4c.023-1.05.056-2.04.116-2.89zm-1.421 12.8a16.83 16.83 0 0 0 .871-3.66 11.38 11.38 0 0 0 4.033 4.97v1.84a10.987 10.987 0 0 1-4.913-3.15zm9.01 7.28l-1.421-1.35a3.163 3.163 0 0 0 .371-1.49v-1.63a11.412 11.412 0 0 0 6.747 0v1.63a3.164 3.164 0 0 0 .372 1.49l-1.421 1.35a3.369 3.369 0 0 1-4.658 0zm23.458-28.92v-3.79a1.487 1.487 0 0 0-.152-.66 14.693 14.693 0 0 1-1.482-6.43v-3.26a11.55 11.55 0 0 1 11.543-11.54h21.346v14.8a14.693 14.693 0 0 1-1.482 6.43 1.487 1.487 0 0 0-.152.66v4.35a14.672 14.672 0 0 1-4.684 10.81q-.565.525-1.173.99c-.009.01-.018.01-.027.02a14.707 14.707 0 0 1-9.915 2.96c-7.761-.5-13.832-7.24-13.832-15.34zm13.624 18.39c.4.02.8.04 1.2.04a17.658 17.658 0 0 0 8.26-2.03v2.79l-8.275 5.66-8.275-5.66v-2.85a17.243 17.243 0 0 0 7.08 2.05zm-5.02 12.36a.116.116 0 0 1-.085.03.121.121 0 0 1-.078-.05l-4.752-7.13 1.529-1.6 7.21 4.92zm12.576-.02a.121.121 0 0 1-.078.05.116.116 0 0 1-.085-.03l-3.823-3.83 7.209-4.92 1.529 1.6zm-50.483 6.27a1.524 1.524 0 0 0-1.529 1.52v7.79a1.529 1.529 0 0 0 3.057 0v-7.79a1.524 1.524 0 0 0-1.538-1.52zm34.2-48.13a.1.1 0 0 1 .079-.1 47.982 47.982 0 0 1 9.928-.49c4.765.32 8.216 1.52 10.258 3.56a1.528 1.528 0 0 0 2.161-2.16c-5.779-5.78-17.871-4.68-22.8-3.93a3.135 3.135 0 0 0-2.681 3.12v3.52a1.529 1.529 0 1 0 3.057 0v-3.52zm-8.064 49.37a1.532 1.532 0 0 0-1.528 1.53v6.54a1.528 1.528 0 0 0 3.056 0v-6.54a1.532 1.532 0 0 0-1.533-1.53zm35.945 0a1.532 1.532 0 0 0-1.528 1.53v6.54a1.528 1.528 0 0 0 3.056 0v-6.54a1.532 1.532 0 0 0-1.533-1.53z" transform="translate(-495 -5792)" fill="#fff" fill-rule="evenodd"/></svg>