<svg id="youtube.svg" xmlns="http://www.w3.org/2000/svg" width="39.25" height="28.75"><path id="Shape_1_copy_6" data-name="Shape 1 copy 6" d="M1623.3 8027.13h-26.8a5.658 5.658 0 0 0-5.7 5.6v12.53a.6.6 0 0 0 1.2 0v-12.53a4.473 4.473 0 0 1 4.5-4.43h26.8a4.473 4.473 0 0 1 4.5 4.43v17.54a4.473 4.473 0 0 1-4.5 4.43h-26.8a4.473 4.473 0 0 1-4.5-4.43v-2.51a.6.6 0 0 0-1.2 0v2.51a5.658 5.658 0 0 0 5.7 5.6h26.8a5.658 5.658 0 0 0 5.7-5.6v-17.54a5.658 5.658 0 0 0-5.7-5.6zm-5.42 13.88l-2.55-1.63a.606.606 0 0 0-.83.17.576.576 0 0 0 .18.81l1.78 1.14-11.06 7.06v-14.12l7.36 4.7a.606.606 0 0 0 .83-.17.582.582 0 0 0-.17-.81l-8.3-5.3a.6.6 0 0 0-.92.49v16.29a.6.6 0 0 0 .92.5l12.76-8.15a.58.58 0 0 0 0-.98z" transform="translate(-1589.75 -8027.13)" fill-rule="evenodd" fill="#3068a6"/><path d="M1622.24 8027.13h-26.8a5.658 5.658 0 0 0-5.7 5.6v12.53a.6.6 0 0 0 1.2 0v-12.53a4.473 4.473 0 0 1 4.5-4.43h26.8a4.473 4.473 0 0 1 4.5 4.43v17.54a4.473 4.473 0 0 1-4.5 4.43h-26.8a4.473 4.473 0 0 1-4.5-4.43v-2.51a.6.6 0 0 0-1.2 0v2.51a5.658 5.658 0 0 0 5.7 5.6h26.8a5.658 5.658 0 0 0 5.7-5.6v-17.54a5.658 5.658 0 0 0-5.7-5.6zm-5.42 13.88l-2.55-1.63a.606.606 0 0 0-.83.17.576.576 0 0 0 .18.81l1.78 1.14-11.07 7.06v-14.12l7.37 4.7a.606.606 0 0 0 .83-.17.582.582 0 0 0-.17-.81l-8.3-5.3a.6.6 0 0 0-.92.49v16.29a.6.6 0 0 0 .92.5l12.76-8.15a.58.58 0 0 0 0-.98z" transform="translate(-1589.75 -8027.13)" fill="#ff4240" fill-rule="evenodd"/></svg>