<svg id="location.svg" xmlns="http://www.w3.org/2000/svg" width="82.03" height="76"><path id="Shape_9_copy_2" data-name="Shape 9 copy 2" d="M1100.91 5849.26c3.13 4.49 6.26 8.5 8.33 11.09.3.37.59.72.86 1.06h-6.25a1.285 1.285 0 0 0 0 2.57h20.27a1.285 1.285 0 0 0 0-2.57h-6.25c.27-.34.56-.69.86-1.06 2.07-2.58 5.19-6.6 8.33-11.09a114.61 114.61 0 0 0 8.37-13.71c2.59-5.17 3.9-9.46 3.9-12.75a25.96 25.96 0 0 0-7.42-18.24 1.261 1.261 0 0 0-2.14.57 1.282 1.282 0 0 0 .34 1.25 23.345 23.345 0 0 1 6.68 16.42c0 2.88-1.22 6.78-3.62 11.58a110.9 110.9 0 0 1-8.18 13.39c-3.09 4.43-6.18 8.4-8.23 10.95-.68.85-1.29 1.6-1.81 2.23a1.259 1.259 0 0 1-.97.45 1.239 1.239 0 0 1-.96-.45c-.52-.63-1.14-1.38-1.82-2.23-2.04-2.55-5.13-6.52-8.22-10.95a110.9 110.9 0 0 1-8.18-13.39c-2.41-4.8-3.63-8.7-3.63-11.58a23.241 23.241 0 0 1 13.94-21.39 22.63 22.63 0 0 1 17.76 0 1.252 1.252 0 0 0 1.26-.16 1.294 1.294 0 0 0 .49-1.19 1.319 1.319 0 0 0-.76-1.03 25.228 25.228 0 0 0-33.23 13.73 25.986 25.986 0 0 0-1.99 10.04c0 3.29 1.31 7.58 3.9 12.75a113.326 113.326 0 0 0 8.37 13.71zm13.07-38.09a1.285 1.285 0 0 0 0-2.57 12.721 12.721 0 0 0-12.42 10.37 12.925 12.925 0 0 0 7.57 14.41 12.574 12.574 0 0 0 15.39-4.74 13.041 13.041 0 0 0-1.58-16.27 1.245 1.245 0 0 0-1.23-.35 1.3 1.3 0 0 0-.56 2.17 10.427 10.427 0 0 1 1.26 13.01 10.036 10.036 0 0 1-12.3 3.8 10.347 10.347 0 0 1-6.07-11.53 10.2 10.2 0 0 1 9.94-8.3zM1079.9 5873h68.17a3.891 3.891 0 0 0 3.41-1.95 3.774 3.774 0 0 0 .04-3.75l-7.79-14.17a3.953 3.953 0 0 0-3.45-2.03h-9.03a1.29 1.29 0 0 0 0 2.58h9.03a1.409 1.409 0 0 1 1.24.7l7.79 14.17a1.178 1.178 0 0 1-.01 1.19 1.367 1.367 0 0 1-1.23.68h-68.17a1.367 1.367 0 0 1-1.23-.68 1.178 1.178 0 0 1-.01-1.19l7.79-14.17a1.409 1.409 0 0 1 1.24-.7h9.03a1.29 1.29 0 0 0 0-2.58h-9.03a3.921 3.921 0 0 0-3.45 2.03l-7.79 14.17a3.8 3.8 0 0 0 .03 3.75 3.907 3.907 0 0 0 3.42 1.95zm58.16-15.46h-5.07a1.26 1.26 0 0 0-.7.22l-3.8 2.58a1.284 1.284 0 0 0-.35 1.78 1.235 1.235 0 0 0 1.75.36l3.48-2.36h4.69a1.29 1.29 0 0 0 0-2.58zm-7.6 9.02a1.281 1.281 0 0 0 1.26 1.29h10.14a1.29 1.29 0 0 0 0-2.58h-10.14a1.281 1.281 0 0 0-1.26 1.29zm-31.68-3.86a1.26 1.26 0 0 0 1.21-.92 1.286 1.286 0 0 0-.51-1.44l-3.8-2.58a1.26 1.26 0 0 0-.7-.22h-5.07a1.29 1.29 0 0 0 0 2.58h4.69l3.48 2.36a1.26 1.26 0 0 0 .7.22zm-12.67 2.57a1.29 1.29 0 0 0 0 2.58h10.13a1.29 1.29 0 0 0 0-2.58h-10.13z" transform="translate(-1071.97 -5797)" fill-rule="evenodd" fill="#a73248"/><path id="Shape_9_copy" data-name="Shape 9 copy" d="M1102.91 5849.26c3.13 4.49 6.26 8.5 8.33 11.09.3.37.59.72.86 1.06h-6.25a1.285 1.285 0 0 0 0 2.57h20.27a1.285 1.285 0 0 0 0-2.57h-6.25c.27-.34.56-.69.86-1.06 2.07-2.58 5.19-6.6 8.33-11.09a114.61 114.61 0 0 0 8.37-13.71c2.59-5.17 3.9-9.46 3.9-12.75a25.96 25.96 0 0 0-7.42-18.24 1.261 1.261 0 0 0-2.14.57 1.282 1.282 0 0 0 .34 1.25 23.345 23.345 0 0 1 6.68 16.42c0 2.88-1.22 6.78-3.62 11.58a110.9 110.9 0 0 1-8.18 13.39c-3.09 4.43-6.18 8.4-8.23 10.95-.68.85-1.29 1.6-1.81 2.23a1.259 1.259 0 0 1-.97.45 1.239 1.239 0 0 1-.96-.45c-.52-.63-1.14-1.38-1.82-2.23-2.04-2.55-5.13-6.52-8.22-10.95a110.9 110.9 0 0 1-8.18-13.39c-2.41-4.8-3.63-8.7-3.63-11.58a23.241 23.241 0 0 1 13.94-21.39 22.63 22.63 0 0 1 17.76 0 1.252 1.252 0 0 0 1.26-.16 1.294 1.294 0 0 0 .49-1.19 1.319 1.319 0 0 0-.76-1.03 25.228 25.228 0 0 0-33.23 13.73 25.986 25.986 0 0 0-1.99 10.04c0 3.29 1.31 7.58 3.9 12.75a113.326 113.326 0 0 0 8.37 13.71zm13.07-38.09a1.285 1.285 0 0 0 0-2.57 12.721 12.721 0 0 0-12.42 10.37 12.925 12.925 0 0 0 7.57 14.41 12.574 12.574 0 0 0 15.39-4.74 13.041 13.041 0 0 0-1.58-16.27 1.245 1.245 0 0 0-1.23-.35 1.3 1.3 0 0 0-.56 2.17 10.427 10.427 0 0 1 1.26 13.01 10.036 10.036 0 0 1-12.3 3.8 10.347 10.347 0 0 1-6.07-11.53 10.2 10.2 0 0 1 9.94-8.3zM1081.9 5873h68.17a3.891 3.891 0 0 0 3.41-1.95 3.774 3.774 0 0 0 .04-3.75l-7.79-14.17a3.953 3.953 0 0 0-3.45-2.03h-9.03a1.29 1.29 0 0 0 0 2.58h9.03a1.409 1.409 0 0 1 1.24.7l7.79 14.17a1.178 1.178 0 0 1-.01 1.19 1.367 1.367 0 0 1-1.23.68h-68.17a1.367 1.367 0 0 1-1.23-.68 1.178 1.178 0 0 1-.01-1.19l7.79-14.17a1.409 1.409 0 0 1 1.24-.7h9.03a1.29 1.29 0 0 0 0-2.58h-9.03a3.921 3.921 0 0 0-3.45 2.03l-7.79 14.17a3.8 3.8 0 0 0 .03 3.75 3.907 3.907 0 0 0 3.42 1.95zm58.16-15.46h-5.07a1.26 1.26 0 0 0-.7.22l-3.8 2.58a1.284 1.284 0 0 0-.35 1.78 1.235 1.235 0 0 0 1.75.36l3.48-2.36h4.69a1.29 1.29 0 0 0 0-2.58zm-7.6 9.02a1.281 1.281 0 0 0 1.26 1.29h10.14a1.29 1.29 0 0 0 0-2.58h-10.14a1.281 1.281 0 0 0-1.26 1.29zm-31.68-3.86a1.26 1.26 0 0 0 1.21-.92 1.286 1.286 0 0 0-.51-1.44l-3.8-2.58a1.26 1.26 0 0 0-.7-.22h-5.07a1.29 1.29 0 0 0 0 2.58h4.69l3.48 2.36a1.26 1.26 0 0 0 .7.22zm-12.67 2.57a1.29 1.29 0 0 0 0 2.58h10.13a1.29 1.29 0 0 0 0-2.58h-10.13z" transform="translate(-1071.97 -5797)" fill="#f5113c" fill-rule="evenodd"/><path d="M1096.91 5849.26c3.13 4.49 6.26 8.5 8.33 11.09.3.37.59.72.86 1.06h-6.25a1.285 1.285 0 0 0 0 2.57h20.27a1.285 1.285 0 0 0 0-2.57h-6.25c.27-.34.56-.69.86-1.06 2.07-2.58 5.19-6.6 8.33-11.09a114.61 114.61 0 0 0 8.37-13.71c2.59-5.17 3.9-9.46 3.9-12.75a25.96 25.96 0 0 0-7.42-18.24 1.261 1.261 0 0 0-2.14.57 1.282 1.282 0 0 0 .34 1.25 23.345 23.345 0 0 1 6.68 16.42c0 2.88-1.22 6.78-3.62 11.58a110.9 110.9 0 0 1-8.18 13.39c-3.09 4.43-6.18 8.4-8.23 10.95-.68.85-1.29 1.6-1.81 2.23a1.259 1.259 0 0 1-.97.45 1.239 1.239 0 0 1-.96-.45c-.52-.63-1.14-1.38-1.82-2.23-2.04-2.55-5.13-6.52-8.22-10.95a110.9 110.9 0 0 1-8.18-13.39c-2.41-4.8-3.63-8.7-3.63-11.58a23.241 23.241 0 0 1 13.94-21.39 22.63 22.63 0 0 1 17.76 0 1.252 1.252 0 0 0 1.26-.16 1.294 1.294 0 0 0 .49-1.19 1.319 1.319 0 0 0-.76-1.03 25.228 25.228 0 0 0-33.23 13.73 25.986 25.986 0 0 0-1.99 10.04c0 3.29 1.31 7.58 3.9 12.75a113.326 113.326 0 0 0 8.37 13.71zm13.07-38.09a1.285 1.285 0 0 0 0-2.57 12.721 12.721 0 0 0-12.42 10.37 12.925 12.925 0 0 0 7.57 14.41 12.574 12.574 0 0 0 15.39-4.74 13.041 13.041 0 0 0-1.58-16.27 1.245 1.245 0 0 0-1.23-.35 1.3 1.3 0 0 0-.56 2.17 10.427 10.427 0 0 1 1.26 13.01 10.036 10.036 0 0 1-12.3 3.8 10.347 10.347 0 0 1-6.07-11.53 10.2 10.2 0 0 1 9.94-8.3zM1075.9 5873h68.17a3.891 3.891 0 0 0 3.41-1.95 3.774 3.774 0 0 0 .04-3.75l-7.79-14.17a3.953 3.953 0 0 0-3.45-2.03h-9.03a1.29 1.29 0 0 0 0 2.58h9.03a1.409 1.409 0 0 1 1.24.7l7.79 14.17a1.178 1.178 0 0 1-.01 1.19 1.367 1.367 0 0 1-1.23.68h-68.17a1.367 1.367 0 0 1-1.23-.68 1.178 1.178 0 0 1-.01-1.19l7.79-14.17a1.409 1.409 0 0 1 1.24-.7h9.03a1.29 1.29 0 0 0 0-2.58h-9.03a3.921 3.921 0 0 0-3.45 2.03l-7.79 14.17a3.8 3.8 0 0 0 .03 3.75 3.907 3.907 0 0 0 3.42 1.95zm58.16-15.46h-5.07a1.26 1.26 0 0 0-.7.22l-3.8 2.58a1.284 1.284 0 0 0-.35 1.78 1.235 1.235 0 0 0 1.75.36l3.48-2.36h4.69a1.29 1.29 0 0 0 0-2.58zm-7.6 9.02a1.281 1.281 0 0 0 1.26 1.29h10.14a1.29 1.29 0 0 0 0-2.58h-10.14a1.281 1.281 0 0 0-1.26 1.29zm-31.68-3.86a1.26 1.26 0 0 0 1.21-.92 1.286 1.286 0 0 0-.51-1.44l-3.8-2.58a1.26 1.26 0 0 0-.7-.22h-5.07a1.29 1.29 0 0 0 0 2.58h4.69l3.48 2.36a1.26 1.26 0 0 0 .7.22zm-12.67 2.57a1.29 1.29 0 0 0 0 2.58h10.13a1.29 1.29 0 0 0 0-2.58h-10.13z" transform="translate(-1071.97 -5797)" fill="#fff" fill-rule="evenodd"/></svg>