<svg id="money.svg" xmlns="http://www.w3.org/2000/svg" width="83.967" height="67.16"><path id="Shape_6_copy_2" data-name="Shape 6 copy 2" d="M997.845 5820.67a7.476 7.476 0 0 0-1.42-.07h-5.219v-6.58h3.259a1.3 1.3 0 0 1 1.3 1.3v1.21a1.315 1.315 0 0 0 2.63 0v-1.21a3.84 3.84 0 0 0-1.148-2.75 3.913 3.913 0 0 0-2.781-1.15h-3.259v-10.81a3.928 3.928 0 0 0-3.945-3.9h-50.429a3.928 3.928 0 0 0-3.945 3.9v10.81H929.2a5.961 5.961 0 0 0-6.132 5.89v40.71a5.778 5.778 0 0 0 5.846 5.84H997.1a3.907 3.907 0 0 0 3.925-3.89v-35.48a3.907 3.907 0 0 0-3.18-3.82zm-62.327-20.06a1.307 1.307 0 0 1 1.315-1.3h50.428a1.307 1.307 0 0 1 1.315 1.3v19.99h-2.63v-7.01a1.3 1.3 0 0 0-1.3-1.3 9.157 9.157 0 0 1-9.223-9.11 1.31 1.31 0 0 0-1.315-1.28h-24.13a1.31 1.31 0 0 0-1.315 1.28 9.157 9.157 0 0 1-9.223 9.11 1.3 1.3 0 0 0-1.3 1.3v7.01h-2.63v-19.99zm22.422 19.99h-17.162v-5.79a11.776 11.776 0 0 0 10.447-10.31h21.645a11.776 11.776 0 0 0 10.447 10.31v5.79h-17.162m-9.716 0h4.144m2.929 0H959.3m-30.1-6.58h3.686v6.58h-3.972a3.186 3.186 0 0 1-3.216-3.29 3.389 3.389 0 0 1 3.502-3.29zm69.192 31.84h-7.887a1.283 1.283 0 0 1-1.012-.48l-1.395-1.73a1.292 1.292 0 0 1 0-1.63l1.395-1.73a1.283 1.283 0 0 1 1.012-.48h7.887v6.05zm0-8.65h-7.887a3.921 3.921 0 0 0-3.07 1.46l-1.395 1.73a3.847 3.847 0 0 0 0 4.86l1.395 1.74a3.919 3.919 0 0 0 3.07 1.46h7.887v11.51a1.3 1.3 0 0 1-1.3 1.3h-68.176a3.164 3.164 0 0 1-3.216-3.25v-35.77a5.838 5.838 0 0 0 3.216.94H997.1a1.3 1.3 0 0 1 1.3 1.3v12.72zm-58.366-29.42a1.292 1.292 0 0 0 .93-.38 1.279 1.279 0 0 0 0-1.83.606.606 0 0 1 0-.86.613.613 0 0 1 .868 0 1.321 1.321 0 0 0 1.859 0 1.279 1.279 0 0 0 0-1.83 3.268 3.268 0 0 0-4.587 0 3.163 3.163 0 0 0 0 4.52 1.294 1.294 0 0 0 .932.38zm42.24-3.07a.632.632 0 0 1 .868 0 .605.605 0 0 1 0 .86 1.3 1.3 0 0 0 .93 2.21 1.294 1.294 0 0 0 .93-.38 3.168 3.168 0 0 0 0-4.52 3.274 3.274 0 0 0-4.587 0 1.279 1.279 0 0 0 0 1.83 1.321 1.321 0 0 0 1.861 0z" transform="translate(-917.063 -5796.72)" fill-rule="evenodd" fill="#f5113c"/><path id="Shape_6_copy" data-name="Shape 6 copy" d="M995.845 5820.67a7.476 7.476 0 0 0-1.42-.07h-5.219v-6.58h3.259a1.3 1.3 0 0 1 1.3 1.3v1.21a1.315 1.315 0 0 0 2.63 0v-1.21a3.84 3.84 0 0 0-1.148-2.75 3.913 3.913 0 0 0-2.781-1.15h-3.259v-10.81a3.928 3.928 0 0 0-3.945-3.9h-50.429a3.928 3.928 0 0 0-3.945 3.9v10.81H927.2a5.961 5.961 0 0 0-6.132 5.89v40.71a5.778 5.778 0 0 0 5.846 5.84H995.1a3.91 3.91 0 0 0 3.929-3.89v-35.48a3.911 3.911 0 0 0-3.184-3.82zm-62.327-20.06a1.307 1.307 0 0 1 1.315-1.3h50.428a1.307 1.307 0 0 1 1.315 1.3v19.99h-2.63v-7.01a1.3 1.3 0 0 0-1.3-1.3 9.157 9.157 0 0 1-9.223-9.11 1.31 1.31 0 0 0-1.315-1.28h-24.13a1.31 1.31 0 0 0-1.315 1.28 9.157 9.157 0 0 1-9.223 9.11 1.3 1.3 0 0 0-1.3 1.3v7.01h-2.63v-19.99zm22.422 19.99h-17.162v-5.79a11.776 11.776 0 0 0 10.447-10.31h21.645a11.775 11.775 0 0 0 10.447 10.31v5.79h-17.162m-9.716 0h4.144m2.929 0H957.3m-30.1-6.58h3.686v6.58h-3.972a3.186 3.186 0 0 1-3.216-3.29 3.389 3.389 0 0 1 3.502-3.29zm69.192 31.84h-7.887a1.283 1.283 0 0 1-1.012-.48l-1.395-1.73a1.292 1.292 0 0 1 0-1.63l1.395-1.73a1.283 1.283 0 0 1 1.012-.48h7.887v6.05zm0-8.65h-7.887a3.921 3.921 0 0 0-3.07 1.46l-1.395 1.73a3.847 3.847 0 0 0 0 4.86l1.395 1.74a3.919 3.919 0 0 0 3.07 1.46h7.887v11.51a1.3 1.3 0 0 1-1.3 1.3h-68.176a3.164 3.164 0 0 1-3.216-3.25v-35.77a5.838 5.838 0 0 0 3.216.94H995.1a1.3 1.3 0 0 1 1.3 1.3v12.72zm-58.366-29.42a1.3 1.3 0 0 0 .93-2.21.6.6 0 0 1 0-.86.613.613 0 0 1 .868 0 1.321 1.321 0 0 0 1.859 0 1.279 1.279 0 0 0 0-1.83 3.268 3.268 0 0 0-4.587 0 3.163 3.163 0 0 0 0 4.52 1.294 1.294 0 0 0 .932.38zm42.24-3.07a.632.632 0 0 1 .868 0 .605.605 0 0 1 0 .86 1.3 1.3 0 0 0 .93 2.21 1.294 1.294 0 0 0 .93-.38 3.168 3.168 0 0 0 0-4.52 3.274 3.274 0 0 0-4.587 0 1.279 1.279 0 0 0 0 1.83 1.321 1.321 0 0 0 1.861 0z" transform="translate(-917.063 -5796.72)" fill="#a73248" fill-rule="evenodd"/><path d="M991.845 5820.67a7.476 7.476 0 0 0-1.42-.07h-5.219v-6.58h3.259a1.3 1.3 0 0 1 1.3 1.3v1.21a1.315 1.315 0 0 0 2.63 0v-1.21a3.84 3.84 0 0 0-1.148-2.75 3.913 3.913 0 0 0-2.781-1.15h-3.259v-10.81a3.928 3.928 0 0 0-3.945-3.9h-50.429a3.928 3.928 0 0 0-3.945 3.9v10.81H923.2a5.961 5.961 0 0 0-6.132 5.89v40.71a5.778 5.778 0 0 0 5.846 5.84H991.1a3.91 3.91 0 0 0 3.929-3.89v-35.48a3.911 3.911 0 0 0-3.184-3.82zm-62.327-20.06a1.307 1.307 0 0 1 1.315-1.3h50.428a1.307 1.307 0 0 1 1.315 1.3v19.99h-2.63v-7.01a1.3 1.3 0 0 0-1.3-1.3 9.157 9.157 0 0 1-9.223-9.11 1.31 1.31 0 0 0-1.315-1.28h-24.13a1.31 1.31 0 0 0-1.315 1.28 9.157 9.157 0 0 1-9.223 9.11 1.3 1.3 0 0 0-1.3 1.3v7.01h-2.63v-19.99zm22.422 19.99h-17.162v-5.79a11.776 11.776 0 0 0 10.447-10.31h21.645a11.775 11.775 0 0 0 10.447 10.31v5.79h-17.162m-9.716 0h4.144m2.929 0H953.3m-30.1-6.58h3.686v6.58h-3.972a3.186 3.186 0 0 1-3.216-3.29 3.389 3.389 0 0 1 3.502-3.29zm69.192 31.84h-7.887a1.283 1.283 0 0 1-1.012-.48l-1.395-1.73a1.292 1.292 0 0 1 0-1.63l1.395-1.73a1.283 1.283 0 0 1 1.012-.48h7.887v6.05zm0-8.65h-7.887a3.921 3.921 0 0 0-3.07 1.46l-1.395 1.73a3.847 3.847 0 0 0 0 4.86l1.395 1.74a3.919 3.919 0 0 0 3.07 1.46h7.887v11.51a1.306 1.306 0 0 1-1.3 1.3h-68.176a3.164 3.164 0 0 1-3.216-3.25v-35.77a5.838 5.838 0 0 0 3.216.94H991.1a1.3 1.3 0 0 1 1.3 1.3v12.72zm-58.366-29.42a1.292 1.292 0 0 0 .93-.38 1.279 1.279 0 0 0 0-1.83.6.6 0 0 1 0-.86.613.613 0 0 1 .868 0 1.321 1.321 0 0 0 1.859 0 1.279 1.279 0 0 0 0-1.83 3.268 3.268 0 0 0-4.587 0 3.163 3.163 0 0 0 0 4.52 1.294 1.294 0 0 0 .932.38zm42.24-3.07a.632.632 0 0 1 .868 0 .605.605 0 0 1 0 .86 1.3 1.3 0 0 0 .93 2.21 1.294 1.294 0 0 0 .93-.38 3.168 3.168 0 0 0 0-4.52 3.274 3.274 0 0 0-4.587 0 1.279 1.279 0 0 0 0 1.83 1.321 1.321 0 0 0 1.861 0z" transform="translate(-917.063 -5796.72)" fill="#fff" fill-rule="evenodd"/></svg>