<svg id="tlegrsm.svg" xmlns="http://www.w3.org/2000/svg" width="33.94" height="33"><path id="Shape_1_copy_6" data-name="Shape 1 copy 6" d="M1573.51 8034.89a16.4 16.4 0 0 0-3.73-5.34.511.511 0 0 0-.73.02.519.519 0 0 0 .02.73 15.325 15.325 0 1 1-1.97-1.6.512.512 0 1 0 .57-.85 16.4 16.4 0 0 0-20.86 1.98 16.46 16.46 0 1 0 26.7 5.06zm-7.6-2.89l-9.9 4.62a.519.519 0 0 0-.25.69.508.508 0 0 0 .68.25l6.11-2.85-2.97 2.41-6.81 5.53-3.73-1.63 5.22-2.44a.519.519 0 0 0 .25-.69.511.511 0 0 0-.68-.25l-5.63 2.63a.823.823 0 0 0-.48.77.835.835 0 0 0 .5.75l4.16 1.82 1.22 7.34a.518.518 0 0 0 .94.2l3.46-5.29 6.54 3.06a.838.838 0 0 0 1.18-.71l.92-15.72a.053.053 0 0 0 0-.04.512.512 0 0 0-.73-.45zm-11.71 16.26l-.8-4.79 8.12-6.6-6.21 6.99a.464.464 0 0 0-.12.23zm1.09-.15l.76-3.17 1.01.47zm2.34-3.57l-1.09-.51 5.36-6.03-.78 1.19zm7.08 3.32l-6.14-2.88 6.93-10.61z" transform="translate(-1540.94 -8025)" fill-rule="evenodd" fill="#3068a6"/><path d="M1572.45 8034.89a16.4 16.4 0 0 0-3.73-5.34.51.51 0 0 0-.73.02.519.519 0 0 0 .02.73 15.432 15.432 0 1 1-1.98-1.6.516.516 0 0 0 .72-.14.506.506 0 0 0-.14-.71 16.5 16.5 0 1 0 2.4 25.32 16.585 16.585 0 0 0 3.44-18.28zm-7.6-2.89l-9.9 4.62a.519.519 0 0 0-.25.69.508.508 0 0 0 .68.25l6.11-2.85-2.97 2.41-6.82 5.53-3.72-1.63 5.22-2.44a.519.519 0 0 0 .25-.69.511.511 0 0 0-.68-.25l-5.63 2.63a.823.823 0 0 0-.48.77.835.835 0 0 0 .5.75l4.16 1.82 1.22 7.34a.518.518 0 0 0 .94.2l3.46-5.29 6.54 3.06a.841.841 0 0 0 1.18-.71l.92-15.72v-.04a.512.512 0 0 0-.73-.45zm-11.71 16.26l-.8-4.79 8.12-6.6-6.21 6.99a.464.464 0 0 0-.12.23zm1.09-.15l.76-3.17 1.01.47zm2.34-3.57l-1.09-.51 5.36-6.03-.78 1.19zm7.08 3.32l-6.14-2.88 6.93-10.61z" transform="translate(-1540.94 -8025)" fill="#ff4240" fill-rule="evenodd"/></svg>