<svg id="time.svg" xmlns="http://www.w3.org/2000/svg" width="55.41" height="72.09"><path id="Shape_5_copy" data-name="Shape 5 copy" d="M1382.2 5838.9c.78 0 4.72-.4 4.72-1.17s-3.94-1.18-4.72-1.18-4.73.4-4.73 1.18 3.94 1.17 4.73 1.17zm0 0l11.29-10.06a22.186 22.186 0 0 0 7.87-8.06 21.493 21.493 0 0 0 2.81-10.6v-7.86a4.217 4.217 0 0 0 2.83-3.97v-2.81a1.4 1.4 0 0 0-1.42-1.4h-46.77a1.408 1.408 0 0 0-1.42 1.4v2.81a4.226 4.226 0 0 0 2.84 3.97v7.86a21.589 21.589 0 0 0 2.8 10.6 22.186 22.186 0 0 0 7.87 8.06 1.406 1.406 0 0 1 .67 1.23 1.43 1.43 0 0 1-.67 1.23 22.082 22.082 0 0 0-7.87 8.05 21.617 21.617 0 0 0-2.8 10.6v7.87a4.226 4.226 0 0 0-2.84 3.97v2.8a1.417 1.417 0 0 0 1.42 1.41h46.77a1.411 1.411 0 0 0 1.42-1.41v-2.8a4.217 4.217 0 0 0-2.83-3.97v-7.87a21.521 21.521 0 0 0-2.81-10.6 22.082 22.082 0 0 0-7.87-8.05 1.43 1.43 0 0 1-.67-1.23 1.406 1.406 0 0 1 .67-1.23zm-33.26-31.9h43.94v1.41a1.415 1.415 0 0 1-1.42 1.4h-41.11a1.406 1.406 0 0 1-1.41-1.4V5807zm43.94 66.25h-43.94v-1.4a1.408 1.408 0 0 1 1.41-1.41h41.11a1.417 1.417 0 0 1 1.42 1.41v1.4zm-12.15-29.49a18.865 18.865 0 0 1 9.31 16.25v7.63h-38.27v-7.63a18.865 18.865 0 0 1 9.31-16.25 4.25 4.25 0 0 0 0-7.26 18.894 18.894 0 0 1-9.31-16.26v-7.62h38.27v7.62a18.894 18.894 0 0 1-9.31 16.26 4.25 4.25 0 0 0 0 7.26zm0 0l-5.15 9.06c-.27-.35-4.23-.32-4.67-.32l-3.55-.24a1.407 1.407 0 0 0-1.13.56 7.19 7.19 0 0 1-1.98 1.78 30.867 30.867 0 0 1-4.36 2.11c-2.83 1.18-5.28 2.21-5.28 6.1v.62a1.406 1.406 0 0 0 1.41 1.4h29.77a1.415 1.415 0 0 0 1.42-1.4v-.62c0-3.89-2.46-4.92-5.3-6.11a31.993 31.993 0 0 1-4.4-2.13 6.871 6.871 0 0 1-1.93-1.75zm8.74 9.2h-26.82c.21-1.3 1.11-1.73 3.5-2.72a35.409 35.409 0 0 0 4.72-2.3.01.01 0 0 0 .01-.01c.59-.36 3.5-1.68 4-2.14.48.45 1.79-.35 2.36 0 0 .01 2.35 1.18 2.36 1.18a68.3 68.3 0 0 0 6.35 3.26c2.4 1 3.3 1.43 3.52 2.73zm0 0l2.89-41.77v-2.58a1.41 1.41 0 0 0-.73-1.23 1.426 1.426 0 0 0-1.44.04c-3.18 1.97-10.38 3.01-14.13 3.01s-10.96-1.04-14.13-3.01a1.452 1.452 0 0 0-1.44-.04 1.41 1.41 0 0 0-.73 1.23v2.58a13.286 13.286 0 0 0 2.73 7.56 23.284 23.284 0 0 0 6.96 6.3c.58.35 4.92 1.29 5.43 1.89l-1.19 7.07a18.719 18.719 0 0 0 4.73 0l-1.18-7.07c.51-.61 4.87-1.56 5.47-1.93 5.77-3.44 9.65-8.99 9.65-13.82zm-11.12 11.42a.01.01 0 0 1-.01.01c-.57.35-4.66 1.48-5.17 1.97-.5-.48-4.57-1.6-5.12-1.94h-.01c-4.99-2.98-8.34-7.58-8.34-11.46v-.2c3.09 1.47 10.02 2.24 13.47 2.24s10.38-.77 13.46-2.24v.2c0 3.82-3.4 8.52-8.28 11.42zm0 0" transform="translate(-1354.59 -5794.13)" fill-rule="evenodd" fill="#a73248"/><path id="Shape_5_copy_2" data-name="Shape 5 copy 2" d="M1385.2 5838.9c.78 0 4.72-.4 4.72-1.17s-3.94-1.18-4.72-1.18-4.73.4-4.73 1.18 3.94 1.17 4.73 1.17zm0 0l11.29-10.06a22.186 22.186 0 0 0 7.87-8.06 21.493 21.493 0 0 0 2.81-10.6v-7.86a4.217 4.217 0 0 0 2.83-3.97v-2.81a1.4 1.4 0 0 0-1.42-1.4h-46.77a1.408 1.408 0 0 0-1.42 1.4v2.81a4.226 4.226 0 0 0 2.84 3.97v7.86a21.589 21.589 0 0 0 2.8 10.6 22.186 22.186 0 0 0 7.87 8.06 1.406 1.406 0 0 1 .67 1.23 1.43 1.43 0 0 1-.67 1.23 22.082 22.082 0 0 0-7.87 8.05 21.617 21.617 0 0 0-2.8 10.6v7.87a4.226 4.226 0 0 0-2.84 3.97v2.8a1.417 1.417 0 0 0 1.42 1.41h46.77a1.411 1.411 0 0 0 1.42-1.41v-2.8a4.217 4.217 0 0 0-2.83-3.97v-7.87a21.521 21.521 0 0 0-2.81-10.6 22.082 22.082 0 0 0-7.87-8.05 1.43 1.43 0 0 1-.67-1.23 1.406 1.406 0 0 1 .67-1.23zm-33.26-31.9h43.94v1.41a1.415 1.415 0 0 1-1.42 1.4h-41.1a1.408 1.408 0 0 1-1.42-1.4V5807zm43.94 66.25h-43.94v-1.4a1.411 1.411 0 0 1 1.42-1.41h41.1a1.417 1.417 0 0 1 1.42 1.41v1.4zm-12.15-29.49a18.865 18.865 0 0 1 9.31 16.25v7.63h-38.27v-7.63a18.865 18.865 0 0 1 9.31-16.25 4.25 4.25 0 0 0 0-7.26 18.894 18.894 0 0 1-9.31-16.26v-7.62h38.27v7.62a18.894 18.894 0 0 1-9.31 16.26 4.25 4.25 0 0 0 0 7.26zm0 0l-5.15 9.06c-.27-.35-4.23-.32-4.67-.32l-3.55-.24a1.407 1.407 0 0 0-1.13.56 7.19 7.19 0 0 1-1.98 1.78 30.867 30.867 0 0 1-4.36 2.11c-2.83 1.18-5.28 2.21-5.28 6.1v.62a1.406 1.406 0 0 0 1.41 1.4h29.77a1.415 1.415 0 0 0 1.42-1.4v-.62c0-3.89-2.46-4.92-5.3-6.11a31.993 31.993 0 0 1-4.4-2.13 6.871 6.871 0 0 1-1.93-1.75zm8.74 9.2h-26.82c.21-1.3 1.11-1.73 3.5-2.72a35.409 35.409 0 0 0 4.72-2.3.01.01 0 0 0 .01-.01c.59-.36 3.5-1.68 4-2.14.48.45 1.79-.35 2.36 0 0 .01 2.35 1.18 2.36 1.18a68.3 68.3 0 0 0 6.35 3.26c2.4 1 3.3 1.43 3.52 2.73zm0 0l2.89-41.77v-2.58a1.41 1.41 0 0 0-.73-1.23 1.426 1.426 0 0 0-1.44.04c-3.18 1.97-10.38 3.01-14.13 3.01s-10.96-1.04-14.13-3.01a1.452 1.452 0 0 0-1.44-.04 1.41 1.41 0 0 0-.73 1.23v2.58a13.286 13.286 0 0 0 2.73 7.56 23.284 23.284 0 0 0 6.96 6.3c.58.35 4.92 1.29 5.43 1.89l-1.19 7.07a18.719 18.719 0 0 0 4.73 0l-1.18-7.07c.51-.61 4.87-1.56 5.47-1.93 5.77-3.44 9.65-8.99 9.65-13.82zm-11.12 11.42a.01.01 0 0 1-.01.01c-.57.35-4.66 1.48-5.17 1.97-.5-.48-4.57-1.6-5.12-1.94h-.01c-4.99-2.98-8.34-7.58-8.34-11.46v-.2c3.09 1.47 10.01 2.24 13.47 2.24s10.38-.77 13.46-2.24v.2c0 3.82-3.4 8.52-8.28 11.42zm0 0" transform="translate(-1354.59 -5794.13)" fill="#f5113c" fill-rule="evenodd"/><path d="M1379.39 5839.12c.78 0 4.72-.4 4.72-1.18s-3.94-1.17-4.72-1.17-4.73.4-4.73 1.17 3.94 1.18 4.73 1.18zm0 0l11.29-10.06a22.186 22.186 0 0 0 7.87-8.06 21.483 21.483 0 0 0 2.8-10.6v-7.86a4.226 4.226 0 0 0 2.84-3.97v-2.81a1.417 1.417 0 0 0-1.42-1.41H1356a1.417 1.417 0 0 0-1.42 1.41v2.81a4.226 4.226 0 0 0 2.84 3.97v7.86a21.589 21.589 0 0 0 2.8 10.6 22.186 22.186 0 0 0 7.87 8.06 1.406 1.406 0 0 1 .67 1.23 1.43 1.43 0 0 1-.67 1.23 22.082 22.082 0 0 0-7.87 8.05 21.589 21.589 0 0 0-2.8 10.6v7.87a4.226 4.226 0 0 0-2.84 3.97v2.8a1.417 1.417 0 0 0 1.42 1.41h46.77a1.417 1.417 0 0 0 1.42-1.41v-2.8a4.226 4.226 0 0 0-2.84-3.97v-7.87a21.483 21.483 0 0 0-2.8-10.6 22.082 22.082 0 0 0-7.87-8.05 1.43 1.43 0 0 1-.67-1.23 1.406 1.406 0 0 1 .67-1.23zm-33.26-31.9h43.93v1.41a1.406 1.406 0 0 1-1.41 1.4h-41.11a1.406 1.406 0 0 1-1.41-1.4v-1.41zm43.93 66.25h-43.93v-1.4a1.408 1.408 0 0 1 1.41-1.41h41.11a1.408 1.408 0 0 1 1.41 1.41v1.4zm-12.14-29.5a18.894 18.894 0 0 1 9.31 16.26v7.63h-38.27v-7.63a18.894 18.894 0 0 1 9.31-16.26 4.241 4.241 0 0 0 0-7.25 18.894 18.894 0 0 1-9.31-16.26v-7.62h38.27v7.62a18.894 18.894 0 0 1-9.31 16.26 4.241 4.241 0 0 0 0 7.25zm0 0l-5.15 9.07c-.27-.35-4.23-.32-4.67-.32l-3.55-.24a1.44 1.44 0 0 0-1.14.56 7.164 7.164 0 0 1-1.97 1.78 33.18 33.18 0 0 1-4.36 2.11c-2.83 1.18-5.28 2.21-5.28 6.1v.62a1.406 1.406 0 0 0 1.41 1.4h29.77a1.406 1.406 0 0 0 1.41-1.4v-.62c0-3.89-2.45-4.92-5.3-6.11a32.5 32.5 0 0 1-4.39-2.13 6.885 6.885 0 0 1-1.93-1.75zm8.73 9.2h-26.81c.21-1.3 1.1-1.73 3.5-2.72a36.691 36.691 0 0 0 4.72-2.3l.01-.01c.59-.36 3.5-1.68 3.99-2.14.48.45 1.8-.35 2.37 0 0 .01 2.35 1.18 2.36 1.18a68.3 68.3 0 0 0 6.35 3.26c2.4 1 3.3 1.43 3.51 2.73zm0 0l2.89-41.77v-2.58a1.39 1.39 0 0 0-.73-1.23 1.409 1.409 0 0 0-1.43.04c-3.18 1.97-10.39 3.01-14.13 3.01s-10.96-1.04-14.14-3.01a1.411 1.411 0 0 0-2.16 1.19v2.58a13.286 13.286 0 0 0 2.73 7.56 23.005 23.005 0 0 0 6.96 6.29c.58.36 4.92 1.3 5.42 1.9l-1.18 7.07a18.719 18.719 0 0 0 4.73 0l-1.18-7.07c.51-.61 4.87-1.56 5.47-1.93 5.77-3.44 9.64-9 9.64-13.82zm-11.11 11.42a.01.01 0 0 1-.01.01c-.57.35-4.66 1.48-5.17 1.97-.5-.48-4.57-1.6-5.12-1.94h-.02c-4.98-2.98-8.33-7.58-8.33-11.46v-.21c3.08 1.48 10.01 2.25 13.47 2.25s10.38-.77 13.46-2.25v.21c0 3.82-3.4 8.51-8.28 11.42zm0 0" transform="translate(-1354.59 -5794.13)" fill="#fff" fill-rule="evenodd"/></svg>